<?xml version="1.0" encoding="UTF-8"?>
<svg width="282px" height="298px" viewBox="0 0 282 298" version="1.1" xmlns="http://www.w3.org/2000/svg" xmlns:xlink="http://www.w3.org/1999/xlink">
    <title>logo0</title>
    <g id="页面改版" stroke="none" stroke-width="1" fill="none" fill-rule="evenodd">
        <g id="画板" transform="translate(-159.000000, -509.000000)" fill="#FF7F40" fill-rule="nonzero">
            <g id="logo0" transform="translate(158.999929, 509.442651)">
                <path d="M113.818543,103.162 C99.1007452,69.2026075 103.398326,30.0387299 125.133829,0.0457210037 C140.945167,-0.329794873 156.726148,1.60951092 171.971409,5.80153496 C140.901205,26.9159223 123.532896,62.9557716 126.430008,100.301535 C122.118702,100.70205 117.878743,101.663735 113.818543,103.162 Z" id="路径" opacity="0.4"></path>
                <path d="M141.248479,100.650372 C148.416744,76.1929266 164.34677,55.2040593 186.01918,41.6620001 C197.358386,47.4568442 207.848378,54.7687902 217.197524,63.3945582 C191.601054,68.5079473 168.869119,83.0132973 153.509626,104.034093 C149.574625,102.417779 145.457645,101.281612 141.248479,100.650372 Z" id="路径" opacity="0.6"></path>
                <path d="M166.786696,111.673628 C166.786696,111.673628 205.882237,70.1271164 268.90453,88.301535 C268.90453,88.301535 280.675231,114.045721 281.726186,133.650372 C251.454072,111.204897 211.332386,106.890451 176.945931,122.38293 C174.056038,118.376557 170.639111,114.774623 166.786696,111.673628 L166.786696,111.673628 Z" id="路径" opacity="0.8"></path>
                <path d="M184.582874,136.964326 C186.2269,141.999746 187.181364,147.232967 187.420454,152.522465 C223.815678,163.697806 251.290954,193.605975 259.23574,230.696884 C269.144366,215.301414 276.13765,198.229083 279.869498,180.324791 C258.121435,150.013688 221.831437,133.499815 184.582874,136.964326 Z" id="路径"></path>
                <path d="M192.675231,199.824791 L192.675231,199.824791 C164.478486,221.81182 126.567626,226.953226 93.4929547,213.27572 C60.4182835,199.598214 37.3182115,169.226704 33.058617,133.81787 C28.7990226,98.4090356 44.0416671,63.4639172 72.9363771,42.3945582 C28.2784049,64.3416742 0.0040824637,109.630013 -1.42108547e-13,159.22014 C-0.0371174394,195.631395 14.4625558,230.564018 40.3053977,256.32376 C66.1482395,282.083502 101.214439,296.557386 137.780326,296.557386 C168.01282,296.578998 197.491143,287.160444 222.06695,269.627116 C221.850144,243.420115 211.29339,218.348906 192.675231,199.824791 Z" id="路径"></path>
            </g>
        </g>
    </g>
</svg>