<?xml version="1.0" encoding="UTF-8"?>
<svg width="1100px" height="297px" viewBox="0 0 1100 297" version="1.1" xmlns="http://www.w3.org/2000/svg" xmlns:xlink="http://www.w3.org/1999/xlink">
    <title>logo3</title>
    <g id="页面改版" stroke="none" stroke-width="1" fill="none" fill-rule="evenodd">
        <g id="画板" transform="translate(-159.000000, -156.000000)" fill-rule="nonzero">
            <g id="编组" transform="translate(159.000000, 153.000000)">
                <g id="logo3" transform="translate(0.000000, 3.000000)">
                    <path d="M113.818471,103.604651 C99.1006739,69.6452586 103.398254,30.4813809 125.133758,0.488372093 C140.945096,0.112856216 156.726076,2.05216201 171.971338,6.24418605 C140.901134,27.3585734 123.532824,63.3984227 126.429936,100.744186 C122.118631,101.144701 117.878672,102.106386 113.818471,103.604651 Z" id="路径" fill="#FF7F40" opacity="0.4"></path>
                    <path d="M141.248408,101.093023 C148.416673,76.6355777 164.346699,55.6467104 186.019108,42.1046512 C197.358315,47.8994953 207.848307,55.2114413 217.197452,63.8372093 C191.600983,68.9505984 168.869048,83.4559484 153.509554,104.476744 C149.574554,102.86043 145.457574,101.724263 141.248408,101.093023 Z" id="路径" fill="#FF7F40" opacity="0.6"></path>
                    <path d="M166.786624,112.116279 C166.786624,112.116279 205.882166,70.5697674 268.904459,88.744186 C268.904459,88.744186 280.675159,114.488372 281.726115,134.093023 C251.454001,111.647549 211.332314,107.333102 176.94586,122.825581 C174.055966,118.819208 170.63904,115.217274 166.786624,112.116279 L166.786624,112.116279 Z" id="路径" fill="#FF7F40" opacity="0.8"></path>
                    <path d="M184.582803,137.406977 C186.226829,142.442397 187.181292,147.675618 187.420382,152.965116 C223.815607,164.140457 251.290883,194.048626 259.235669,231.139535 C269.144295,215.744065 276.137579,198.671734 279.869427,180.767442 C258.121364,150.456339 221.831365,133.942466 184.582803,137.406977 Z" id="路径" fill="#FF7F40"></path>
                    <path d="M192.675159,200.267442 L192.675159,200.267442 C164.478414,222.254471 126.567554,227.395877 93.4928833,213.718371 C60.4182121,200.040865 37.3181401,169.669355 33.0585457,134.260521 C28.7989512,98.8516866 44.0415958,63.9065683 72.9363057,42.8372093 C28.2783335,64.7843253 0.00401110358,110.072665 -7.13601185e-05,159.662791 C-0.0371887995,196.074046 14.4624844,231.006669 40.3053263,256.766411 C66.1481682,282.526153 101.214368,297.000037 137.780255,297.000037 C168.012749,297.021649 197.491072,287.603095 222.066879,270.069767 C221.850072,243.862766 211.293319,218.791557 192.675159,200.267442 Z" id="路径" fill="#FF7F40"></path>
                    <path d="M599.044586,55.7093023 L599.745223,54.9418605 C603.319737,51.1411232 603.90739,45.4321672 601.181529,40.9883721 C596.137188,32.6875232 587.388263,27.3123522 577.675159,26.5465116 L556.656051,24.872093 L580.828025,55.0116279 C582.993125,57.7646075 586.264981,59.4295613 589.773947,59.5639509 C593.282912,59.6983405 596.67353,58.2885521 599.044586,55.7093023 L599.044586,55.7093023 Z" id="路径" fill="#FFFFFF"></path>
                    <path d="M687.289809,121.883721 L671.875796,136.534884 L627.38535,136.534884 L627.38535,105.906977 L679.267516,105.906977 C680.150241,105.897185 680.952796,105.395018 681.344628,104.607307 C681.736459,103.819597 681.651291,102.879576 681.124204,102.174419 L664.764331,84.7325581 L649.350318,99.244186 L627.38535,99.244186 L627.38535,68.5465116 L691.703822,68.5465116 C692.652215,68.6116677 693.54642,68.1007361 693.96849,67.2525234 C694.39056,66.4043107 694.257134,65.3863453 693.630573,64.6744186 L677.270701,47.2325581 L661.856688,61.744186 L625.773885,61.744186 L653.799363,36.5232558 L660.350318,34.6744186 C661.310544,34.3990277 661.971838,33.5241032 661.971838,32.5290698 C661.971838,31.5340363 661.310544,30.6591118 660.350318,30.3837209 L630.047771,21.6976744 L619.047771,61.744186 L540.085987,61.744186 C540.085987,65.481741 543.12874,68.5116279 546.882166,68.5116279 L600.235669,68.5116279 L600.235669,99.2093023 L554.694268,99.2093023 C554.684945,101.000924 555.39316,102.722352 556.662133,103.992506 C557.931106,105.262661 559.65616,105.976768 561.455414,105.976744 L599.990446,105.976744 L599.990446,136.534884 L527.649591,136.534884 C527.640359,138.326506 528.348574,140.047933 529.617547,141.318088 C530.88652,142.588242 532.611574,143.30235 534.410828,143.302326 L600.235669,143.302326 L600.235669,194.162791 L610.149682,194.162791 C619.668679,194.162791 627.38535,186.478748 627.38535,177 L627.38535,143.127907 L701.792994,143.127907 C702.675719,143.118115 703.478274,142.615948 703.870105,141.828238 C704.261937,141.040527 704.176769,140.100507 703.649682,139.395349 L687.289809,121.883721 Z" id="路径" fill="#FFFFFF"></path>
                    <path d="M479.410828,59.1627907 L494.929936,59.1627907 L494.929936,59.1627907 L497.872611,59.1627907 C498.755337,59.1529988 499.557892,58.6508322 499.949723,57.8631214 C500.341554,57.0754107 500.256387,56.1353903 499.729299,55.4302326 L490.095541,42.6976744 L472.089172,52.4651163 L443.748408,52.4651163 C442.321351,45.0927643 441.536058,37.6115058 441.401274,30.1046512 L445.254777,27.5930233 C445.890472,27.1021407 446.160792,26.2745605 445.936736,25.5052194 C445.712679,24.7358784 445.039659,24.18071 444.238854,24.1046512 L417.719745,23.0581395 C417.361322,32.904265 418.04234,42.7606493 419.751592,52.4651163 L403.847134,52.4651163 L403.847134,54.4186047 C403.837798,55.692126 404.33932,56.916682 405.240389,57.8204903 C406.141458,58.7242987 407.367534,59.2325921 408.646497,59.2325581 L421.117834,59.2325581 C423.971431,73.9024417 430.625443,87.5750766 440.420382,98.8953488 C429.057289,105.608926 416.078861,109.129147 402.866242,109.081395 L402.866242,113.581395 C418.388855,113.685834 433.807392,111.052145 448.407643,105.802326 C459.328959,113.175401 471.806382,117.949528 484.875796,119.755814 L472.159236,126.732558 L399.363057,126.732558 L399.363057,51.4534884 L402.515924,49.8139535 C403.209919,49.1676663 403.585985,48.2518901 403.545587,47.3065677 C403.50519,46.3612453 403.052356,45.4805923 402.305732,44.8953488 L384.579618,29.372093 L370.566879,44.8604651 L363.245223,44.8604651 L363.245223,44.6511628 L339.493631,36.9767442 L339.493631,184.77907 L346.184713,184.77907 C355.55252,184.779384 363.16828,177.258114 363.245223,167.930233 L363.245223,154.709302 L375.681529,154.709302 L375.681529,178.081395 L379.184713,178.081395 C390.366092,177.910095 399.345265,168.844706 399.363057,157.709302 L399.363057,133.290698 L416.283439,133.290698 C415.828025,144.383721 412.780255,186.523256 388.257962,191.05814 L389.203822,194.302326 C432.082803,186.27907 438.949045,141.697674 439.824841,133.290698 L449.984076,133.290698 L449.984076,167.930233 C449.984064,182.481525 461.820052,194.283078 476.433121,194.302326 L486.942675,194.302326 C492.241749,194.289569 496.891132,190.782434 498.338312,185.706341 C499.785491,180.630247 497.680241,175.213637 493.178344,172.430233 L493.003185,152.511628 C493.003185,151.22093 491.601911,150.767442 491.076433,151.883721 L482.318471,170.651163 L476.468153,170.651163 C474.972742,170.63207 473.770578,169.419443 473.770701,167.930233 L473.770701,133.290698 L494.789809,133.290698 L494.789809,133.290698 L497.732484,133.290698 C498.615209,133.280906 499.417765,132.778739 499.809596,131.991028 C500.201427,131.203318 500.11626,130.263297 499.589172,129.55814 L491.461783,118.813953 C495.480266,116.96119 498.124658,113.030438 498.316373,108.624962 C498.508087,104.219486 496.215078,100.075685 492.372611,97.8837209 L495.035032,85.1162791 C495.098066,84.7115597 494.891222,84.3126667 494.523347,84.1295069 C494.155472,83.9463471 493.710897,84.0209078 493.423567,84.3139535 L483.43949,95.3372093 C480.254146,94.6334959 477.118039,93.7246079 474.050955,92.6162791 C480.93331,87.9558657 487.236348,82.4991565 492.828025,76.3604651 L501.621019,74.5465116 C502.362068,74.3432392 502.91089,73.7208232 503.017462,72.9628149 C503.124034,72.2048065 502.767964,71.4562413 502.111465,71.0581395 L479.410828,59.1627907 Z M375.681529,51.627907 L375.681529,95.2674419 L363.245223,95.2674419 L363.245223,51.627907 L375.681529,51.627907 Z M363.245223,147.94186 L363.245223,102.034884 L375.681529,102.034884 L375.681529,147.94186 L363.245223,147.94186 Z M457.83121,83.0581395 C451.805355,76.1971342 447.506377,68.0062174 445.289809,59.1627907 L476.818471,59.1627907 C472.059846,68.231947 466.03265,76.5826637 458.917197,83.9651163 L457.83121,83.0581395 Z" id="形状" fill="#FFFFFF"></path>
                    <polygon id="路径" fill="#FFFFFF" points="373.859873 282.139535 362.404459 263.372093 362.404459 263.372093 350.66879 282.139535 338.127389 282.139535 355.923567 255.139535 338.617834 228.697674 352.070064 228.697674 362.859873 246.348837 362.859873 246.348837 374.035032 228.697674 386.296178 228.697674 369.095541 254.093023 387.136943 282"></polygon>
                    <polygon id="路径" fill="#FFFFFF" points="411.133758 228.837209 411.133758 282.139535 399.573248 282.139535 399.573248 228.837209"></polygon>
                    <path d="M440.140127,269.825581 L435.971338,282.139535 L424.585987,282.139535 L442.767516,228.837209 L457.305732,228.837209 L476.433121,282.139535 L464.27707,282.139535 L459.863057,269.825581 L440.140127,269.825581 Z M457.200637,260.372093 C453.417197,249.104651 450.964968,241.918605 449.703822,237.139535 L449.703822,237.139535 C448.407643,242.406977 445.710191,250.77907 442.697452,260.372093 L457.200637,260.372093 Z" id="形状" fill="#FFFFFF"></path>
                    <path d="M537.808917,255.313953 C537.808917,270.139535 528.980892,283.046512 511.464968,283.046512 C494.684713,283.046512 485.89172,270.872093 485.89172,255.627907 C485.89172,240.383721 495.595541,228.209302 512.200637,228.209302 C527.859873,228.069767 537.808917,238.988372 537.808917,255.313953 Z M497.83758,255.313953 C497.83758,265.77907 502.426752,273.593023 511.850318,273.593023 C522.11465,273.593023 525.863057,265.011628 525.863057,255.523256 C525.863057,245.44186 521.729299,237.488372 511.850318,237.488372 C501.971338,237.488372 497.83758,244.883721 497.83758,255.139535 L497.83758,255.313953 Z" id="形状" fill="#FFFFFF"></path>
                    <path d="M564.012739,282.139535 L564.012739,263.302326 C564.032602,262.70041 563.874224,262.105972 563.557325,261.593023 L545.095541,228.837209 L558.197452,228.837209 C562.33121,236.860465 567.691083,247.569767 570.353503,253.255814 C572.700637,247.674419 578.550955,236.44186 582.61465,228.837209 L594.700637,228.837209 L576.028662,261.418605 C575.667719,261.9117 575.50525,262.521492 575.573248,263.127907 L575.573248,282.139535 L564.012739,282.139535 Z" id="路径" fill="#FFFFFF"></path>
                    <path d="M609.55414,269.825581 L605.350318,282.139535 L594,282.139535 L612.146497,228.837209 L626.684713,228.837209 L645.671975,282.139535 L633.480892,282.139535 L629.101911,269.825581 L609.55414,269.825581 Z M626.61465,260.372093 C622.796178,249.104651 620.378981,241.918605 619.082803,237.139535 L619.082803,237.139535 C617.751592,242.406977 615.089172,250.77907 612.076433,260.372093 L626.61465,260.372093 Z" id="形状" fill="#FFFFFF"></path>
                    <path d="M658.598726,282.139535 L658.598726,228.837209 L672.926752,228.837209 C679.617834,240.802326 691.984076,262.395349 694.436306,268.186047 L694.436306,268.186047 C693.840764,262.639535 693.840764,253.360465 693.840764,244.639535 L693.840764,228.837209 L704.350318,228.837209 L704.350318,282.139535 L690.757962,282.139535 C684.977707,271.674419 671.280255,246.906977 668.652866,240.767442 L668.652866,240.767442 C669.038217,245.44186 669.143312,256.360465 669.143312,265.918605 L669.143312,282.139535 L658.598726,282.139535 Z" id="路径" fill="#FFFFFF"></path>
                    <path d="M770.140127,282.139535 L761.66242,282.139535 C761.206407,280.414707 760.913201,278.651232 760.786624,276.872093 C757.808917,280.848837 752.589172,283.011628 745.127389,283.011628 C729.60828,283.011628 720.920382,271.325581 720.920382,256.151163 C720.920382,240.139535 730.273885,228.069767 747.159236,228.069767 C760.926752,228.069767 769.05414,235.77907 770.350318,244.883721 L758.754777,244.883721 C757.294488,239.771049 752.319318,236.473223 747.019108,237.104651 C736.019108,237.104651 733.006369,246.244186 733.006369,255.627907 C733.006369,265.011628 736.509554,273.837209 747.229299,273.837209 C750.427141,274.182977 753.607903,273.05144 755.861827,270.766239 C758.115751,268.481038 759.194602,265.293852 758.789809,262.116279 L758.789809,261.767442 L747.05414,261.767442 L747.05414,252.313953 L770.140127,252.313953 L770.140127,282.139535 Z" id="路径" fill="#FFFFFF"></path>
                    <path d="M853.936306,282.139535 L845.458599,282.139535 C844.990755,280.415833 844.685818,278.652341 844.547771,276.872093 C841.605096,280.848837 836.350318,283.011628 828.923567,283.011628 C813.404459,283.011628 804.716561,271.325581 804.716561,256.151163 C804.716561,240.139535 814.070064,228.069767 830.955414,228.069767 C844.72293,228.069767 852.815287,235.77907 854.111465,244.883721 L842.550955,244.883721 C841.076055,239.765771 836.089261,236.470078 830.780255,237.104651 C819.780255,237.104651 816.767516,246.244186 816.767516,255.627907 C816.767516,265.011628 820.270701,273.837209 830.780255,273.837209 C834.01784,274.265363 837.271319,273.170356 839.584167,270.874121 C841.897015,268.577886 843.006335,265.341433 842.585987,262.116279 L842.585987,261.767442 L830.850318,261.767442 L830.850318,252.313953 L853.936306,252.313953 L853.936306,282.139535 Z" id="路径" fill="#FFFFFF"></path>
                    <path d="M883.22293,260.790698 L883.22293,282.139535 L871.907643,282.139535 L871.907643,228.837209 L895.449045,228.837209 C907.11465,228.837209 913.38535,235.22093 913.38535,243.453488 C913.760915,248.883136 910.638604,253.952943 905.60828,256.081395 C908.270701,257.05814 912.264331,259.77907 912.264331,269.337209 L912.264331,271.953488 C912.111639,275.367304 912.370384,278.787039 913.035032,282.139535 L902.070064,282.139535 C901.050461,278.237526 900.671892,274.196896 900.949045,270.174419 L900.949045,269.372093 C900.949045,263.546512 899.477707,260.790698 890.824841,260.790698 L883.22293,260.790698 Z M883.22293,251.616279 L892.926752,251.616279 C899.267516,251.616279 901.719745,249.209302 901.719745,244.639535 C901.719745,240.069767 898.882166,237.872093 893.207006,237.872093 L883.22293,237.872093 L883.22293,251.616279 Z" id="形状" fill="#FFFFFF"></path>
                    <path d="M979.105096,255.313953 C979.105096,270.139535 970.171975,282.906977 952.796178,282.906977 C935.980892,282.906977 927.187898,270.732558 927.187898,255.488372 C927.187898,240.244186 936.926752,228.069767 953.531847,228.069767 C969.191083,228.069767 979.105096,238.988372 979.105096,255.313953 Z M939.16879,255.313953 C939.16879,265.77907 943.72293,273.593023 953.181529,273.593023 C963.480892,273.593023 967.194268,265.011628 967.194268,255.523256 C967.194268,245.44186 963.06051,237.488372 953.181529,237.488372 C943.302548,237.488372 939.16879,244.883721 939.16879,255.139535 L939.16879,255.313953 Z" id="形状" fill="#FFFFFF"></path>
                    <path d="M1006.35987,228.837209 L1006.35987,260.581395 C1006.35987,270.802326 1011.64968,273.837209 1017.42994,273.837209 C1024.05096,273.837209 1028.21975,270.348837 1028.21975,260.581395 L1028.21975,228.837209 L1039.78025,228.837209 L1039.78025,260.023256 C1039.78025,278.232558 1029.06051,282.872093 1017.25478,282.872093 C1005.44904,282.872093 994.904459,278.023256 994.904459,260.232558 L994.904459,228.837209 L1006.35987,228.837209 Z" id="路径" fill="#FFFFFF"></path>
                    <path d="M1058.24204,228.837209 L1080.38217,228.837209 C1091.76752,228.837209 1099.47452,235.186047 1099.47452,245.337209 C1099.47452,256.918605 1090.68153,262.22093 1080.13694,262.22093 L1069.83758,262.22093 L1069.83758,282.139535 L1058.24204,282.139535 L1058.24204,228.837209 Z M1069.83758,253.046512 L1078.66561,253.046512 C1084.02548,253.046512 1087.80892,250.988372 1087.80892,245.546512 C1087.80892,240.104651 1083.81529,238.011628 1078.91083,238.011628 L1069.83758,238.011628 L1069.83758,253.046512 Z" id="形状" fill="#FFFFFF"></path>
                    <path d="M880.38535,126.348837 C880.38535,139.5 876.882166,147.27907 851.729299,149.406977 C866.834357,157.751864 883.271695,163.439893 900.318471,166.22093 L900.318471,168.418605 C890.019108,171 882.802548,179.232558 879.719745,191.860465 C852.535032,178.848837 834.178344,161.651163 824.404459,127.813953 L824.404459,176.337209 C824.404459,183.313953 818.028662,192.94186 803.56051,194.72093 L802.61465,194.72093 L798.305732,194.72093 L798.305732,154.325581 C777.70788,170.638411 753.80491,182.313244 728.242038,188.546512 L726.94586,186.348837 C759.488967,169.890165 784.804949,142.073406 798.06051,108.209302 L771.786624,108.209302 L771.786624,143.72093 C771.786624,145.918605 760.015924,151.395349 749.541401,151.395349 L746.038217,151.395349 L746.038217,92.8604651 L773.433121,103.081395 L798.235669,103.081395 L798.235669,85.8837209 L730.974522,85.8837209 L729.503185,80.7209302 L798.235669,80.7209302 L798.235669,68.5116279 C796.434966,69.2102904 794.59918,69.8157502 792.735669,70.3255814 L791.089172,68.6860465 C797.224035,62.6352478 802.535754,55.8096411 806.888535,48.3837209 L781.210191,48.3837209 C805.27707,58.8488372 786.149682,80.9651163 771.471338,67.9534884 C771.671987,61.1806639 770.204658,54.4618865 767.197452,48.3837209 L765.340764,48.3837209 C755.08016,61.459046 741.60106,71.6728237 726.210191,78.0348837 L724.563694,76.3953488 C737.314493,60.0184703 746.05834,40.9087301 750.101911,20.5813953 L781.210191,32.2674419 C780.264331,34.4651163 777.882166,35.9302326 773.678344,35.755814 C772.221543,38.3999161 770.61932,40.9619508 768.878981,43.4302326 L783.767516,43.4302326 L794.27707,28.7790698 C794.27707,28.7790698 803.105096,36.1046512 810.076433,42.5232558 C814.027315,35.5370879 817.266375,28.1748439 819.745223,20.5465116 L852.464968,31.8837209 C851.729299,34.0813953 848.961783,35.7209302 844.933121,35.5465116 C842.923813,38.2175478 840.772103,40.7793657 838.487261,43.2209302 L866.968153,43.2209302 L878.914013,28.0465116 C878.914013,28.0465116 892.506369,38.2674419 900.598726,45.4883721 C900.248408,47.5116279 898.216561,48.4186047 895.449045,48.4186047 L857.789809,48.4186047 C878.808917,58.6744186 860.907643,79.8139535 845.66879,67.8139535 C845.020806,61.000369 842.956943,54.3954232 839.60828,48.4186047 L833.16242,48.4186047 C826.068497,54.8754051 817.993012,60.1735052 809.235669,64.1162791 L831.270701,66.1395349 C830.920382,68.6860465 829.624204,70.7093023 824.474522,71.4418605 L824.474522,80.7209302 L861.60828,80.7209302 L874.289809,63.2790698 C874.289809,63.2790698 889.003185,75.1744186 897.270701,83.0232558 C896.88535,85.0465116 894.853503,85.9534884 892.121019,85.9534884 L824.334395,85.9534884 L824.334395,103.151163 L852.815287,103.151163 L863.675159,90.9069767 L887.742038,108.348837 C885.853322,110.522557 883.241881,111.946585 880.38535,112.360465 L880.38535,126.348837 Z M824.334395,118.848837 C829.789248,131.318987 839.057505,141.756623 850.818471,148.674419 C850.433121,142.430233 849.872611,137.860465 847.665605,135.104651 C845.458599,132.348837 842.901274,129.802326 834.808917,128.546512 L834.808917,126.348837 C834.808917,126.348837 848.050955,127.081395 851.55414,127.081395 C853.936306,127.081395 854.671975,125.965116 854.671975,123.94186 L854.671975,108.209302 L824.334395,108.209302 L824.334395,118.848837 Z" id="形状" fill="#FFFFFF"></path>
                    <path d="M1094.92038,70.7093023 C1093.24123,71.3364319 1091.45876,71.6440859 1089.66561,71.6162791 C1079.61256,77.4202026 1069.06152,82.323201 1058.13694,86.2674419 L1066.40446,94.1511628 C1052.01836,102.355269 1037.17599,109.739249 1021.94904,116.267442 L1021.94904,127.813953 L1055.75478,127.813953 L1069.76752,109.325581 C1069.76752,109.325581 1085.74204,121.604651 1095.13057,130.011628 C1094.57006,132.034884 1092.36306,132.94186 1089.59554,132.94186 L1021.98408,132.94186 L1021.98408,162.593023 C1021.98408,180.244186 1017.42994,190.081395 986.952229,193.116279 C985.644291,193.203672 984.487141,192.278835 984.289809,190.988372 C983.378981,183.453488 981.942675,178.116279 977.949045,174.27907 C973.955414,170.44186 968.770701,167.302326 955.703822,164.965116 L955.703822,162.767442 C955.703822,162.767442 984.745223,164.581395 989.719745,164.581395 C992.66242,164.581395 993.573248,163.674419 993.573248,161.302326 L993.573248,133.046512 L928.624204,133.046512 C928.624204,133.046512 924.770701,133.046512 923.894904,130.430233 C923.597322,129.609119 923.351619,128.770271 923.159236,127.918605 L993.748408,127.918605 L993.748408,108.627907 L1012.49045,110.093023 C1017.67134,103.771078 1022.51251,97.1804611 1026.99363,90.3488372 L960.433121,90.3488372 C957.74101,90.351422 955.358462,88.6144327 954.547771,86.0581395 L954.267516,85.2209302 L1028.14968,85.2209302 L1042.86306,71.4767442 L1054.59873,82.6395349 C1056.45541,77.3372093 1058.27707,70.9534884 1059.57325,65.4418605 L951.11465,65.4418605 C953.321656,79.9186047 948.171975,89.8604651 940.815287,94.0116279 C937.547262,96.1586123 933.473214,96.7010911 929.753509,95.4845558 C926.033805,94.2680205 923.076145,91.4258102 921.72293,87.7674419 C919.305732,80.0930233 923.894904,74.2325581 930.515924,71.127907 C938.961788,65.0864273 943.237957,54.7994277 941.550955,44.5813953 L943.757962,44.5813953 C946.580165,49.564031 948.679563,54.9195238 949.993631,60.4883721 L1027.06369,60.4883721 C1033.43619,47.1500261 1038.73108,33.3272021 1042.89809,19.1511628 L1073.69108,30.627907 C1073.69108,30.627907 1076.17834,31.5697674 1074.56688,33.0348837 C1072.82296,34.3627676 1070.57075,34.8369351 1068.43631,34.3255814 C1057.53843,43.9150172 1045.92076,52.6613973 1033.68471,60.4883721 L1058.69745,60.4883721 L1072.71019,46.5348837 L1094.71019,67.1511628 C1094.71019,67.1511628 1097.37261,69.6627907 1094.92038,70.7093023 Z M950.203822,21.4186047 C1004.9586,28.5697674 986.812102,68.7906977 965.372611,57.244186 C963.473122,56.1812776 962.178345,54.298897 961.869427,52.1511628 C959.795668,41.3467831 955.292461,31.1500761 948.697452,22.3255814 L950.203822,21.4186047 Z M992.452229,19.2209302 C1044.43949,30.9767442 1022.2293,68.0581395 1001.80573,55.0465116 C999.704643,53.6729798 998.399703,51.3730039 998.302548,48.872093 C997.649628,38.8692069 995.168405,29.0690325 990.980892,19.9534884 L992.452229,19.2209302 Z" id="形状" fill="#FFFFFF"></path>
                </g>
            </g>
        </g>
    </g>
</svg>